<svg width="42" height="42" viewBox="0 0 42 42" fill="none" xmlns="http://www.w3.org/2000/svg">
<g filter="url(#filter0_d_449_4771)">
<path d="M11.2857 11.1118L11.2857 11.1118L11.2827 11.1122C9.90118 11.2685 8.49481 12.0122 7.38254 13.05C6.27025 14.0879 5.4272 15.4433 5.20295 16.8508L5.20293 16.8508L5.20247 16.8539C4.59918 20.9738 4.59917 25.094 5.20246 29.2099L5.20301 29.2133C5.42935 30.6207 6.27337 31.975 7.38561 33.0123C8.49781 34.0496 9.90301 34.7931 11.2822 34.9516L11.2857 34.9519C14.5303 35.279 17.7751 35.4445 21.024 35.4445C24.269 35.4445 27.5137 35.279 30.7623 34.952L30.7654 34.9516C32.1469 34.7952 33.5532 34.0516 34.6655 33.0138C35.7778 31.9759 36.6208 30.6205 36.8451 29.213L36.8456 29.2099C37.4489 25.09 37.4489 20.9738 36.8456 16.8539L36.8456 16.8539L36.845 16.8505C36.6187 15.443 35.7747 14.0888 34.6624 13.0515C33.5502 12.0142 32.145 11.2707 30.7658 11.1122L30.7658 11.1122L30.7623 11.1118C27.5137 10.7848 24.269 10.6192 21.024 10.6192C17.7791 10.6192 14.5343 10.7848 11.2857 11.1118ZM21.024 13.1289C24.171 13.1289 27.3622 13.2895 30.4809 13.6067C31.3069 13.7019 32.2157 14.1953 32.9573 14.8871C33.6996 15.5796 34.2369 16.436 34.3626 17.218C34.9263 21.0754 34.9263 24.9886 34.3666 28.8176C34.2388 29.6145 33.6997 30.4781 32.9601 31.1733C32.2209 31.8681 31.3183 32.3599 30.5053 32.453C27.3582 32.7702 24.1669 32.9309 21.024 32.9309C17.8771 32.9309 14.6859 32.7702 11.5672 32.4531C10.7412 32.3579 9.83235 31.8645 9.09075 31.1727C8.34843 30.4801 7.8111 29.6238 7.6855 28.8418C7.12174 24.9844 7.12177 21.0711 7.68147 17.2421C7.80922 16.4452 8.34831 15.5816 9.08791 14.8865C9.82713 14.1916 10.7296 13.6999 11.5427 13.6067C14.6861 13.2935 17.8773 13.1289 21.024 13.1289Z" fill="#F25D8E" stroke="#F25D8E" stroke-width="0.5"/>
<path d="M31.1018 5.13444C31.6575 4.61509 31.6872 3.74337 31.1682 3.18734C30.649 2.63125 29.7775 2.60149 29.2217 3.1209L21.5213 10.3167C21.4296 10.4024 21.2866 10.4001 21.1978 10.3115L16.6827 5.80994C16.144 5.27281 15.272 5.27433 14.7351 5.81334C14.1983 6.35229 14.1998 7.22451 14.7385 7.76157L19.2536 12.2631C20.3927 13.3988 22.2261 13.4285 23.4013 12.3303L31.1018 5.13444Z" fill="#F25D8E" stroke="#F25D8E" stroke-width="0.5" stroke-linejoin="round"/>
<path fill-rule="evenodd" clip-rule="evenodd" d="M25.5729 21.0613C27.1294 21.9604 27.1294 24.2081 25.5729 25.1071L20.5009 28.0369C18.9444 28.936 16.9988 27.8121 16.9988 26.014L16.9988 20.1545C16.9988 18.3563 18.9444 17.2324 20.5009 18.1315L25.5729 21.0613ZM24.4764 23.0423C24.4731 23.0365 24.4668 23.0266 24.4458 23.0145L19.3738 20.0847C19.3528 20.0726 19.3411 20.072 19.3344 20.0721C19.3243 20.0723 19.3094 20.0754 19.2933 20.0847C19.2772 20.094 19.2671 20.1053 19.2618 20.114C19.2584 20.1198 19.253 20.1302 19.253 20.1545L19.253 26.014C19.253 26.0382 19.2584 26.0487 19.2618 26.0544C19.2671 26.0631 19.2772 26.0744 19.2933 26.0837C19.3094 26.093 19.3243 26.0961 19.3344 26.0963C19.3411 26.0964 19.3528 26.0959 19.3738 26.0837L24.4458 23.154C24.4668 23.1418 24.4731 23.132 24.4764 23.1261C24.4813 23.1172 24.486 23.1028 24.486 23.0842C24.486 23.0656 24.4813 23.0512 24.4764 23.0423Z" fill="#F25D8E"/>
</g>
<defs>
<filter id="filter0_d_449_4771" x="0.5" y="0.5" width="41.0479" height="41.1945" filterUnits="userSpaceOnUse" color-interpolation-filters="sRGB">
<feFlood flood-opacity="0" result="BackgroundImageFix"/>
<feColorMatrix in="SourceAlpha" type="matrix" values="0 0 0 0 0 0 0 0 0 0 0 0 0 0 0 0 0 0 127 0" result="hardAlpha"/>
<feOffset dy="2"/>
<feGaussianBlur stdDeviation="2"/>
<feComposite in2="hardAlpha" operator="out"/>
<feColorMatrix type="matrix" values="0 0 0 0 0.94902 0 0 0 0 0.364706 0 0 0 0 0.556863 0 0 0 0.4 0"/>
<feBlend mode="normal" in2="BackgroundImageFix" result="effect1_dropShadow_449_4771"/>
<feBlend mode="normal" in="SourceGraphic" in2="effect1_dropShadow_449_4771" result="shape"/>
</filter>
</defs>
</svg>
