<svg width="42" height="43" viewBox="0 0 42 43" fill="none" xmlns="http://www.w3.org/2000/svg">
<g filter="url(#filter0_d_449_4739)">
<path d="M11.2857 12.1118L11.2857 12.1118L11.2827 12.1122C9.90118 12.2686 8.49481 13.0122 7.38254 14.05C6.27025 15.0879 5.4272 16.4433 5.20295 17.8508L5.20293 17.8508L5.20247 17.8539C4.59918 21.9738 4.59917 26.094 5.20246 30.2099L5.20301 30.2133C5.42935 31.6208 6.27337 32.975 7.38561 34.0123C8.49781 35.0496 9.90301 35.7931 11.2822 35.9516L11.2857 35.952C14.5303 36.279 17.7751 36.4446 21.024 36.4446C24.269 36.4446 27.5137 36.279 30.7623 35.952L30.7654 35.9516C32.1469 35.7952 33.5532 35.0516 34.6655 34.0138C35.7778 32.9759 36.6208 31.6205 36.8451 30.213L36.8456 30.2099C37.4489 26.09 37.4489 21.9738 36.8456 17.8539L36.8456 17.8539L36.845 17.8505C36.6187 16.443 35.7747 15.0888 34.6624 14.0515C33.5502 13.0142 32.145 12.2707 30.7658 12.1122L30.7658 12.1122L30.7623 12.1118C27.5137 11.7848 24.269 11.6192 21.024 11.6192C17.7791 11.6192 14.5343 11.7848 11.2857 12.1118ZM21.024 14.1289C24.171 14.1289 27.3622 14.2895 30.4809 14.6067C31.3069 14.7019 32.2157 15.1953 32.9573 15.8871C33.6996 16.5796 34.2369 17.436 34.3626 18.218C34.9263 22.0754 34.9263 25.9886 34.3666 29.8176C34.2388 30.6146 33.6997 31.4781 32.9601 32.1733C32.2209 32.8682 31.3183 33.3599 30.5053 33.453C27.3582 33.7703 24.1669 33.9309 21.024 33.9309C17.8771 33.9309 14.6859 33.7703 11.5672 33.4531C10.7412 33.3579 9.83235 32.8645 9.09075 32.1727C8.34843 31.4801 7.8111 30.6238 7.6855 29.8418C7.12174 25.9844 7.12177 22.0712 7.68147 18.2421C7.80922 17.4452 8.34831 16.5816 9.08791 15.8865C9.82713 15.1916 10.7296 14.6999 11.5427 14.6067C14.6861 14.2935 17.8773 14.1289 21.024 14.1289Z" fill="white" stroke="white" stroke-width="0.5"/>
<path d="M31.1018 6.13444C31.6575 5.61509 31.6872 4.74337 31.1682 4.18734C30.649 3.63125 29.7775 3.60149 29.2217 4.1209L21.5213 11.3167C21.4296 11.4024 21.2866 11.4001 21.1978 11.3115L16.6827 6.80994C16.144 6.27281 15.272 6.27433 14.7351 6.81334C14.1983 7.35229 14.1998 8.22451 14.7385 8.76157L19.2536 13.2631C20.3927 14.3988 22.2261 14.4285 23.4013 13.3303L31.1018 6.13444Z" fill="white" stroke="white" stroke-width="0.5" stroke-linejoin="round"/>
<path fill-rule="evenodd" clip-rule="evenodd" d="M25.5729 22.0613C27.1294 22.9604 27.1294 25.2081 25.5729 26.1072L20.5009 29.0369C18.9444 29.936 16.9988 28.8121 16.9988 27.014L16.9988 21.1545C16.9988 19.3563 18.9444 18.2325 20.5009 19.1315L25.5729 22.0613ZM24.4764 24.0423C24.4731 24.0365 24.4668 24.0266 24.4458 24.0145L19.3738 21.0847C19.3528 21.0726 19.3411 21.072 19.3344 21.0721C19.3243 21.0723 19.3094 21.0754 19.2933 21.0847C19.2772 21.094 19.2671 21.1053 19.2618 21.114C19.2584 21.1198 19.253 21.1302 19.253 21.1545L19.253 27.014C19.253 27.0383 19.2584 27.0487 19.2618 27.0544C19.2671 27.0631 19.2772 27.0745 19.2933 27.0837C19.3094 27.093 19.3243 27.0962 19.3344 27.0963C19.3411 27.0964 19.3528 27.0959 19.3738 27.0837L24.4458 24.154C24.4668 24.1418 24.4731 24.132 24.4764 24.1261C24.4813 24.1173 24.486 24.1028 24.486 24.0842C24.486 24.0656 24.4813 24.0512 24.4764 24.0423Z" fill="white"/>
</g>
<defs>
<filter id="filter0_d_449_4739" x="0.5" y="1.5" width="41.0479" height="41.1946" filterUnits="userSpaceOnUse" color-interpolation-filters="sRGB">
<feFlood flood-opacity="0" result="BackgroundImageFix"/>
<feColorMatrix in="SourceAlpha" type="matrix" values="0 0 0 0 0 0 0 0 0 0 0 0 0 0 0 0 0 0 127 0" result="hardAlpha"/>
<feOffset dy="2"/>
<feGaussianBlur stdDeviation="2"/>
<feComposite in2="hardAlpha" operator="out"/>
<feColorMatrix type="matrix" values="0 0 0 0 0.94902 0 0 0 0 0.364706 0 0 0 0 0.556863 0 0 0 0.4 0"/>
<feBlend mode="normal" in2="BackgroundImageFix" result="effect1_dropShadow_449_4739"/>
<feBlend mode="normal" in="SourceGraphic" in2="effect1_dropShadow_449_4739" result="shape"/>
</filter>
</defs>
</svg>
