<svg width="41" height="42" viewBox="0 0 41 42" fill="none" xmlns="http://www.w3.org/2000/svg">
<g filter="url(#filter0_d_449_4741)">
<path d="M27.9653 34.9669C27.4033 34.9669 26.8414 34.8263 26.3075 34.5452L21.1656 31.8465C20.7723 31.6497 20.2946 31.6497 19.8731 31.8465L14.7313 34.5452C13.5231 35.1636 12.0901 35.0793 10.9943 34.2641C9.89849 33.477 9.36464 32.1276 9.58942 30.8064L10.5728 25.0716C10.6571 24.6218 10.4885 24.172 10.1795 23.8628L6.07722 19.8148C5.0938 18.859 4.75663 17.4815 5.1781 16.1884C5.59956 14.8952 6.69537 13.9676 8.04405 13.7708L13.776 12.9274C14.2255 12.8712 14.6189 12.5901 14.8156 12.1684L17.3725 6.96781C17.9625 5.75901 19.1988 5 20.5475 5C21.8962 5 23.1325 5.75901 23.7225 6.96781L26.2794 12.1684C26.4761 12.5901 26.8694 12.8712 27.319 12.9274L33.0509 13.7708C34.3996 13.9676 35.4954 14.8952 35.9169 16.1884C36.3383 17.4815 36.0012 18.859 35.0178 19.8148L34.0624 20.7424C33.641 21.1641 32.9666 21.1641 32.5452 20.7143C32.1237 20.2927 32.1237 19.618 32.5733 19.1963L33.5286 18.2686C33.9219 17.9032 34.0343 17.3691 33.8658 16.8631C33.6972 16.357 33.2757 15.9916 32.7418 15.9354L27.0099 15.092C25.8579 14.9234 24.8745 14.1925 24.3407 13.1523L21.7838 7.95171C21.559 7.47381 21.0813 7.1927 20.5475 7.1927C20.0136 7.1927 19.536 7.47381 19.3112 7.95171L16.7543 13.1523C16.2486 14.1925 15.237 14.9234 14.085 15.092L8.35313 15.9354C7.81927 16.0197 7.39781 16.357 7.22922 16.8631C7.06064 17.3691 7.20112 17.9032 7.56639 18.2686L11.7248 22.3167C12.5678 23.1319 12.933 24.3126 12.7364 25.4371L11.7529 31.1437C11.6686 31.6778 11.8653 32.1838 12.3149 32.4931C12.7364 32.8023 13.2983 32.8585 13.776 32.6055L18.9178 29.9068C19.9574 29.3727 21.1656 29.3727 22.2052 29.9068L27.3471 32.6055C27.8248 32.8585 28.3586 32.8023 28.8082 32.4931C29.2296 32.1838 29.4544 31.6778 29.3701 31.1437L28.3867 25.4371C28.19 24.2845 28.5834 23.1038 29.3982 22.3167C29.8197 21.895 30.494 21.9231 30.9155 22.3448C31.337 22.7665 31.3089 23.4411 30.8874 23.8628C30.5502 24.172 30.4097 24.6499 30.494 25.0716L31.4775 30.7783C31.7022 32.1276 31.1684 33.4488 30.0726 34.236C29.4544 34.7139 28.7239 34.9669 27.9653 34.9669Z" fill="white" stroke="white" stroke-width="0.5"/>
<path d="M16.3045 27.0113C15.7144 27.0113 15.2368 26.5334 15.2368 25.9431V25.8306L15.5178 23.3006C15.574 22.7946 15.4054 22.2886 15.0401 21.9512L13.27 20.2364C12.8485 19.8148 12.8204 19.1401 13.2419 18.7184C13.6633 18.2967 14.3377 18.2686 14.7591 18.6903L16.5293 20.4051C17.3722 21.2203 17.7937 22.401 17.6532 23.5536L17.3722 26.0836C17.316 26.6177 16.8384 27.0113 16.3045 27.0113Z" fill="white"/>
</g>
<defs>
<filter id="filter0_d_449_4741" x="0.75" y="2.75" width="39.5952" height="38.4669" filterUnits="userSpaceOnUse" color-interpolation-filters="sRGB">
<feFlood flood-opacity="0" result="BackgroundImageFix"/>
<feColorMatrix in="SourceAlpha" type="matrix" values="0 0 0 0 0 0 0 0 0 0 0 0 0 0 0 0 0 0 127 0" result="hardAlpha"/>
<feOffset dy="2"/>
<feGaussianBlur stdDeviation="2"/>
<feComposite in2="hardAlpha" operator="out"/>
<feColorMatrix type="matrix" values="0 0 0 0 0.94902 0 0 0 0 0.364706 0 0 0 0 0.556863 0 0 0 0.4 0"/>
<feBlend mode="normal" in2="BackgroundImageFix" result="effect1_dropShadow_449_4741"/>
<feBlend mode="normal" in="SourceGraphic" in2="effect1_dropShadow_449_4741" result="shape"/>
</filter>
</defs>
</svg>
