<svg width="41" height="41" viewBox="0 0 41 41" fill="none" xmlns="http://www.w3.org/2000/svg">
<g filter="url(#filter0_d_449_4761)">
<path d="M27.9653 33.9669C27.4033 33.9669 26.8414 33.8263 26.3075 33.5452L21.1656 30.8465C20.7723 30.6497 20.2946 30.6497 19.8731 30.8465L14.7313 33.5452C13.5231 34.1636 12.0901 34.0793 10.9943 33.2641C9.89849 32.477 9.36464 31.1276 9.58942 29.8064L10.5728 24.0716C10.6571 23.6218 10.4885 23.172 10.1795 22.8628L6.07722 18.8148C5.0938 17.859 4.75663 16.4815 5.1781 15.1884C5.59956 13.8952 6.69537 12.9676 8.04405 12.7708L13.776 11.9274C14.2255 11.8712 14.6189 11.5901 14.8156 11.1684L17.3725 5.96781C17.9625 4.75901 19.1988 4 20.5475 4C21.8962 4 23.1325 4.75901 23.7225 5.96781L26.2794 11.1684C26.4761 11.5901 26.8694 11.8712 27.319 11.9274L33.0509 12.7708C34.3996 12.9676 35.4954 13.8952 35.9169 15.1884C36.3383 16.4815 36.0012 17.859 35.0178 18.8148L34.0624 19.7424C33.641 20.1641 32.9666 20.1641 32.5452 19.7143C32.1237 19.2927 32.1237 18.618 32.5733 18.1963L33.5286 17.2686C33.9219 16.9032 34.0343 16.3691 33.8658 15.8631C33.6972 15.357 33.2757 14.9916 32.7418 14.9354L27.0099 14.092C25.8579 13.9234 24.8745 13.1925 24.3407 12.1523L21.7838 6.95171C21.559 6.47381 21.0813 6.1927 20.5475 6.1927C20.0136 6.1927 19.536 6.47381 19.3112 6.95171L16.7543 12.1523C16.2486 13.1925 15.237 13.9234 14.085 14.092L8.35313 14.9354C7.81927 15.0197 7.39781 15.357 7.22922 15.8631C7.06064 16.3691 7.20112 16.9032 7.56639 17.2686L11.7248 21.3167C12.5678 22.1319 12.933 23.3126 12.7364 24.4371L11.7529 30.1437C11.6686 30.6778 11.8653 31.1838 12.3149 31.4931C12.7364 31.8023 13.2983 31.8585 13.776 31.6055L18.9178 28.9068C19.9574 28.3727 21.1656 28.3727 22.2052 28.9068L27.3471 31.6055C27.8248 31.8585 28.3586 31.8023 28.8082 31.4931C29.2296 31.1838 29.4544 30.6778 29.3701 30.1437L28.3867 24.4371C28.19 23.2845 28.5834 22.1038 29.3982 21.3167C29.8197 20.895 30.494 20.9231 30.9155 21.3448C31.337 21.7665 31.3089 22.4411 30.8874 22.8628C30.5502 23.172 30.4097 23.6499 30.494 24.0716L31.4775 29.7783C31.7022 31.1276 31.1684 32.4488 30.0726 33.236C29.4544 33.7139 28.7239 33.9669 27.9653 33.9669Z" fill="#F25D8E" stroke="#F25D8E" stroke-width="0.5"/>
<path d="M16.3045 26.0113C15.7144 26.0113 15.2368 25.5334 15.2368 24.9431V24.8306L15.5178 22.3006C15.574 21.7946 15.4054 21.2886 15.0401 20.9512L13.27 19.2364C12.8485 18.8148 12.8204 18.1401 13.2419 17.7184C13.6633 17.2967 14.3377 17.2686 14.7591 17.6903L16.5293 19.4051C17.3722 20.2203 17.7937 21.401 17.6532 22.5536L17.3722 25.0836C17.316 25.6177 16.8384 26.0113 16.3045 26.0113Z" fill="#F25D8E"/>
</g>
<defs>
<filter id="filter0_d_449_4761" x="0.75" y="1.75" width="39.5952" height="38.4669" filterUnits="userSpaceOnUse" color-interpolation-filters="sRGB">
<feFlood flood-opacity="0" result="BackgroundImageFix"/>
<feColorMatrix in="SourceAlpha" type="matrix" values="0 0 0 0 0 0 0 0 0 0 0 0 0 0 0 0 0 0 127 0" result="hardAlpha"/>
<feOffset dy="2"/>
<feGaussianBlur stdDeviation="2"/>
<feComposite in2="hardAlpha" operator="out"/>
<feColorMatrix type="matrix" values="0 0 0 0 0.94902 0 0 0 0 0.364706 0 0 0 0 0.556863 0 0 0 0.4 0"/>
<feBlend mode="normal" in2="BackgroundImageFix" result="effect1_dropShadow_449_4761"/>
<feBlend mode="normal" in="SourceGraphic" in2="effect1_dropShadow_449_4761" result="shape"/>
</filter>
</defs>
</svg>
