<svg width="51" height="49" viewBox="0 0 51 49" fill="none" xmlns="http://www.w3.org/2000/svg">
<g filter="url(#filter0_d_634_4482)">
<path d="M7.472 2.726C7.268 3.326 7.052 3.92 6.824 4.508C6.596 5.096 6.344 5.678 6.068 6.254V18.656H4.79V8.63C4.514 9.074 4.238 9.494 3.962 9.89C3.686 10.286 3.404 10.658 3.116 11.006C3.032 10.85 2.906 10.646 2.738 10.394C2.582 10.13 2.438 9.92 2.306 9.764C2.702 9.32 3.086 8.816 3.458 8.252C3.842 7.688 4.196 7.088 4.52 6.452C4.856 5.816 5.168 5.156 5.456 4.472C5.744 3.788 5.996 3.098 6.212 2.402L7.472 2.726ZM11.9 5.408C12.152 5.828 12.458 6.236 12.818 6.632C13.19 7.028 13.622 7.406 14.114 7.766C14.978 7.07 15.662 6.266 16.166 5.354H11.936L11.9 5.408ZM17.552 5.354C16.964 6.542 16.166 7.568 15.158 8.432C15.77 8.78 16.442 9.092 17.174 9.368C17.918 9.644 18.728 9.866 19.604 10.034C19.484 10.166 19.346 10.34 19.19 10.556C19.046 10.76 18.932 10.946 18.848 11.114C17.924 10.91 17.078 10.64 16.31 10.304C15.542 9.968 14.84 9.59 14.204 9.17C13.52 9.638 12.794 10.052 12.026 10.412C11.258 10.76 10.442 11.066 9.578 11.33C9.506 11.186 9.386 11 9.218 10.772C9.062 10.544 8.918 10.364 8.786 10.232C9.614 10.028 10.394 9.776 11.126 9.476C11.87 9.176 12.56 8.822 13.196 8.414C12.788 8.078 12.422 7.736 12.098 7.388C11.786 7.028 11.51 6.668 11.27 6.308C10.742 7.016 10.178 7.64 9.578 8.18C9.494 8.084 9.374 7.97 9.218 7.838C9.062 7.694 8.918 7.568 8.786 7.46V15.686H7.598V4.418H8.786V7.172C9.494 6.56 10.142 5.834 10.73 4.994C11.318 4.142 11.792 3.242 12.152 2.294L13.358 2.618C13.238 2.894 13.112 3.17 12.98 3.446C12.86 3.71 12.728 3.98 12.584 4.256H19.082V5.354H17.552ZM17.264 12.572C16.916 12.956 16.514 13.316 16.058 13.652C15.602 13.988 15.104 14.294 14.564 14.57C14.024 14.846 13.454 15.098 12.854 15.326C12.266 15.554 11.672 15.746 11.072 15.902C10.988 15.77 10.88 15.62 10.748 15.452C10.628 15.284 10.502 15.14 10.37 15.02C10.946 14.876 11.516 14.708 12.08 14.516C12.644 14.324 13.184 14.108 13.7 13.868C14.216 13.616 14.69 13.346 15.122 13.058C15.554 12.77 15.926 12.464 16.238 12.14L17.264 12.572ZM15.554 10.844C15.278 11.132 14.96 11.414 14.6 11.69C14.24 11.954 13.856 12.206 13.448 12.446C13.052 12.674 12.632 12.884 12.188 13.076C11.756 13.256 11.33 13.418 10.91 13.562C10.814 13.43 10.694 13.286 10.55 13.13C10.418 12.974 10.28 12.836 10.136 12.716C10.532 12.596 10.94 12.458 11.36 12.302C11.78 12.134 12.182 11.954 12.566 11.762C12.95 11.558 13.31 11.348 13.646 11.132C13.994 10.904 14.288 10.67 14.528 10.43L15.554 10.844ZM19.046 14.606C18.602 15.146 18.068 15.632 17.444 16.064C16.82 16.496 16.124 16.88 15.356 17.216C14.6 17.552 13.784 17.846 12.908 18.098C12.032 18.35 11.126 18.56 10.19 18.728C10.106 18.56 9.998 18.368 9.866 18.152C9.734 17.948 9.602 17.774 9.47 17.63C10.37 17.498 11.24 17.324 12.08 17.108C12.92 16.904 13.706 16.658 14.438 16.37C15.17 16.07 15.83 15.734 16.418 15.362C17.006 14.99 17.498 14.57 17.894 14.102L19.046 14.606ZM41.222 6.938C41.45 8.054 41.726 9.11 42.05 10.106C42.386 11.09 42.794 12.014 43.274 12.878C43.754 12.062 44.144 11.162 44.444 10.178C44.756 9.182 45.014 8.078 45.218 6.866H41.24L41.222 6.938ZM46.586 6.866C46.346 8.366 46.022 9.716 45.614 10.916C45.206 12.104 44.69 13.172 44.066 14.12C44.606 14.888 45.224 15.566 45.92 16.154C46.616 16.73 47.402 17.204 48.278 17.576C48.122 17.708 47.948 17.888 47.756 18.116C47.576 18.344 47.432 18.548 47.324 18.728C46.472 18.332 45.71 17.84 45.038 17.252C44.366 16.676 43.76 16.01 43.22 15.254C42.572 16.022 41.822 16.694 40.97 17.27C40.118 17.858 39.14 18.374 38.036 18.818C38 18.746 37.946 18.656 37.874 18.548C37.814 18.44 37.742 18.332 37.658 18.224C37.586 18.116 37.508 18.008 37.424 17.9C37.352 17.792 37.28 17.702 37.208 17.63C38.372 17.222 39.38 16.73 40.232 16.154C41.084 15.566 41.828 14.876 42.464 14.084C42.02 13.304 41.63 12.47 41.294 11.582C40.958 10.682 40.658 9.722 40.394 8.702C40.19 9.086 39.974 9.452 39.746 9.8C39.518 10.148 39.284 10.472 39.044 10.772C38.948 10.688 38.822 10.586 38.666 10.466C38.51 10.346 38.354 10.232 38.198 10.124V10.61H36.902V9.89H33.41V14.408C33.41 14.684 33.458 14.858 33.554 14.93C33.662 14.99 33.902 15.02 34.274 15.02H36.74C36.896 15.02 37.022 14.996 37.118 14.948C37.226 14.9 37.31 14.804 37.37 14.66C37.442 14.516 37.49 14.306 37.514 14.03C37.538 13.754 37.562 13.388 37.586 12.932C37.718 13.052 37.904 13.16 38.144 13.256C38.384 13.34 38.594 13.406 38.774 13.454C38.738 14.018 38.684 14.486 38.612 14.858C38.54 15.218 38.432 15.506 38.288 15.722C38.144 15.926 37.952 16.07 37.712 16.154C37.484 16.238 37.196 16.28 36.848 16.28H34.148C33.752 16.28 33.422 16.256 33.158 16.208C32.894 16.148 32.684 16.052 32.528 15.92C32.384 15.776 32.276 15.584 32.204 15.344C32.144 15.104 32.114 14.798 32.114 14.426V8.666H36.902V5.156H32.114V3.896H38.198V9.512C38.918 8.612 39.518 7.538 39.998 6.29C40.478 5.042 40.856 3.722 41.132 2.33L42.518 2.582C42.302 3.638 42.032 4.64 41.708 5.588H48.08V6.866H46.586ZM9.596 34.272C9.38 34.092 9.11 33.906 8.786 33.714C8.474 33.51 8.132 33.312 7.76 33.12C7.4 32.916 7.022 32.724 6.626 32.544C6.242 32.364 5.87 32.208 5.51 32.076L6.248 31.104C6.608 31.236 6.98 31.386 7.364 31.554C7.748 31.71 8.126 31.884 8.498 32.076C8.87 32.256 9.212 32.442 9.524 32.634C9.848 32.826 10.124 33.012 10.352 33.192L9.596 34.272ZM7.958 37.62C7.742 37.44 7.478 37.248 7.166 37.044C6.854 36.828 6.518 36.618 6.158 36.414C5.798 36.21 5.42 36.018 5.024 35.838C4.64 35.646 4.268 35.478 3.908 35.334L4.718 34.398C5.066 34.53 5.432 34.686 5.816 34.866C6.2 35.034 6.578 35.214 6.95 35.406C7.322 35.598 7.664 35.796 7.976 36C8.3 36.192 8.576 36.384 8.804 36.576L7.958 37.62ZM12.368 41.418C12.992 41.706 13.61 42.018 14.222 42.354C14.846 42.69 15.44 43.032 16.004 43.38C16.58 43.728 17.114 44.082 17.606 44.442C18.098 44.802 18.53 45.144 18.902 45.468L18.02 46.476C17.66 46.14 17.24 45.792 16.76 45.432C16.28 45.084 15.764 44.73 15.212 44.37C14.672 44.01 14.096 43.662 13.484 43.326C12.884 42.978 12.278 42.654 11.666 42.354L12.368 41.418ZM18.974 38.502V39.744H12.116C11.876 40.56 11.546 41.322 11.126 42.03C10.718 42.738 10.184 43.386 9.524 43.974C8.876 44.55 8.09 45.06 7.166 45.504C6.242 45.96 5.144 46.35 3.872 46.674C3.8 46.506 3.686 46.314 3.53 46.098C3.374 45.882 3.23 45.702 3.098 45.558C4.25 45.282 5.246 44.958 6.086 44.586C6.938 44.202 7.664 43.77 8.264 43.29C8.876 42.798 9.38 42.258 9.776 41.67C10.172 41.07 10.49 40.428 10.73 39.744H3.098V38.502H11.072C11.312 37.386 11.444 36.168 11.468 34.848C11.492 33.516 11.51 32.064 11.522 30.492H12.89C12.878 32.016 12.854 33.444 12.818 34.776C12.782 36.108 12.65 37.35 12.422 38.502H18.974ZM36.29 30.69C36.086 31.302 35.864 31.908 35.624 32.508C35.396 33.096 35.144 33.678 34.868 34.254V46.638H33.59V36.63C33.062 37.506 32.51 38.286 31.934 38.97C31.85 38.814 31.724 38.61 31.556 38.358C31.4 38.094 31.256 37.884 31.124 37.728C31.52 37.284 31.904 36.78 32.276 36.216C32.66 35.652 33.014 35.058 33.338 34.434C33.674 33.798 33.986 33.138 34.274 32.454C34.562 31.758 34.814 31.062 35.03 30.366L36.29 30.69ZM38.126 36.864H41.402V34.794H38.126V36.864ZM39.35 32.472C39.182 32.7 39.002 32.928 38.81 33.156C38.63 33.372 38.438 33.588 38.234 33.804H41.798C41.966 33.612 42.134 33.402 42.302 33.174C42.482 32.946 42.65 32.712 42.806 32.472H39.35ZM46.028 34.794H42.626V36.864H46.028V34.794ZM47.882 39.078C47.426 39.462 46.928 39.846 46.388 40.23C45.848 40.602 45.338 40.932 44.858 41.22C45.278 42.024 45.758 42.744 46.298 43.38C46.85 44.004 47.474 44.508 48.17 44.892C48.014 45.024 47.846 45.192 47.666 45.396C47.498 45.6 47.366 45.786 47.27 45.954C46.658 45.57 46.1 45.102 45.596 44.55C45.104 43.986 44.66 43.362 44.264 42.678C43.868 41.982 43.52 41.226 43.22 40.41C42.92 39.594 42.662 38.742 42.446 37.854H41.924C41.768 37.986 41.606 38.112 41.438 38.232C41.27 38.34 41.102 38.448 40.934 38.556C41.654 39.156 42.206 39.84 42.59 40.608C42.974 41.364 43.22 42.108 43.328 42.84C43.436 43.56 43.412 44.22 43.256 44.82C43.112 45.42 42.86 45.864 42.5 46.152C42.248 46.368 41.99 46.512 41.726 46.584C41.462 46.668 41.15 46.716 40.79 46.728C40.598 46.728 40.382 46.722 40.142 46.71C39.914 46.71 39.674 46.704 39.422 46.692C39.398 46.524 39.356 46.326 39.296 46.098C39.248 45.882 39.17 45.696 39.062 45.54C39.362 45.564 39.638 45.582 39.89 45.594C40.154 45.606 40.376 45.612 40.556 45.612C40.772 45.612 40.958 45.594 41.114 45.558C41.282 45.522 41.45 45.432 41.618 45.288C41.858 45.108 42.026 44.802 42.122 44.37C42.218 43.926 42.218 43.416 42.122 42.84C41.726 43.176 41.288 43.512 40.808 43.848C40.328 44.172 39.83 44.484 39.314 44.784C38.81 45.084 38.294 45.36 37.766 45.612C37.238 45.876 36.734 46.098 36.254 46.278C36.17 46.122 36.062 45.948 35.93 45.756C35.798 45.564 35.666 45.402 35.534 45.27C36.074 45.102 36.632 44.892 37.208 44.64C37.796 44.376 38.366 44.088 38.918 43.776C39.482 43.452 40.016 43.116 40.52 42.768C41.024 42.408 41.456 42.048 41.816 41.688C41.744 41.508 41.666 41.334 41.582 41.166C41.498 40.986 41.402 40.806 41.294 40.626C40.97 40.878 40.61 41.124 40.214 41.364C39.83 41.604 39.434 41.838 39.026 42.066C38.618 42.282 38.204 42.486 37.784 42.678C37.364 42.87 36.968 43.038 36.596 43.182C36.524 43.05 36.422 42.894 36.29 42.714C36.17 42.534 36.044 42.384 35.912 42.264C36.308 42.144 36.722 42 37.154 41.832C37.598 41.652 38.03 41.46 38.45 41.256C38.882 41.04 39.29 40.818 39.674 40.59C40.07 40.35 40.424 40.11 40.736 39.87C40.628 39.738 40.508 39.612 40.376 39.492C40.256 39.372 40.13 39.252 39.998 39.132C39.434 39.444 38.858 39.738 38.27 40.014C37.682 40.278 37.106 40.512 36.542 40.716C36.458 40.596 36.332 40.44 36.164 40.248C36.008 40.044 35.876 39.888 35.768 39.78C36.512 39.552 37.268 39.276 38.036 38.952C38.804 38.616 39.512 38.25 40.16 37.854H36.884V35.082C36.788 35.178 36.686 35.268 36.578 35.352C36.47 35.424 36.362 35.502 36.254 35.586C36.146 35.454 36.002 35.31 35.822 35.154C35.642 34.998 35.48 34.878 35.336 34.794C36.272 34.134 37.07 33.402 37.73 32.598C38.39 31.794 38.912 31.038 39.296 30.33L40.592 30.564C40.508 30.708 40.418 30.858 40.322 31.014C40.238 31.158 40.148 31.302 40.052 31.446H43.256V31.428H43.544L43.778 31.356L44.606 31.914C44.426 32.226 44.222 32.55 43.994 32.886C43.766 33.21 43.532 33.516 43.292 33.804H47.306V37.854H43.598C43.706 38.286 43.826 38.706 43.958 39.114C44.102 39.522 44.258 39.918 44.426 40.302C44.858 40.002 45.302 39.672 45.758 39.312C46.214 38.94 46.592 38.604 46.892 38.304L47.882 39.078Z" fill="white"/>
</g>
<defs>
<filter id="filter0_d_634_4482" x="0.306152" y="0.293945" width="49.9717" height="48.4341" filterUnits="userSpaceOnUse" color-interpolation-filters="sRGB">
<feFlood flood-opacity="0" result="BackgroundImageFix"/>
<feColorMatrix in="SourceAlpha" type="matrix" values="0 0 0 0 0 0 0 0 0 0 0 0 0 0 0 0 0 0 127 0" result="hardAlpha"/>
<feOffset/>
<feGaussianBlur stdDeviation="1"/>
<feComposite in2="hardAlpha" operator="out"/>
<feColorMatrix type="matrix" values="0 0 0 0 0 0 0 0 0 0 0 0 0 0 0 0 0 0 0.43 0"/>
<feBlend mode="normal" in2="BackgroundImageFix" result="effect1_dropShadow_634_4482"/>
<feBlend mode="normal" in="SourceGraphic" in2="effect1_dropShadow_634_4482" result="shape"/>
</filter>
</defs>
</svg>
