<svg width="49" height="47" viewBox="0 0 49 47" fill="none" xmlns="http://www.w3.org/2000/svg">
<g filter="url(#filter0_d_439_4729)">
<path d="M37.7345 11.4922C38.1199 19.2005 38.2163 27.0052 38.0236 34.9062C34.9402 31.8229 31.3751 27.8724 27.3283 23.0547C23.4741 18.237 20.9689 14.9609 19.8126 13.2266C17.1147 9.3724 15.5731 6.57812 15.1876 4.84375C14.8022 3.6875 14.0314 3.01302 12.8751 2.82031C9.40638 3.39844 7.4793 4.26562 7.09388 5.42188C6.32305 6.96354 6.4194 7.73438 7.38295 7.73438C8.5392 8.3125 9.21367 9.66146 9.40638 11.7812C9.7918 13.901 9.98451 16.0208 9.98451 18.1406C9.40638 23.3438 7.86472 28.1615 5.35951 32.5938C3.62513 36.2552 2.95065 38.4714 3.33607 39.2422C3.52878 41.7474 4.58867 42.9036 6.51576 42.7109C7.67201 42.9036 8.7319 42.5182 9.69545 41.5547C12.0079 38.0859 13.4533 33.75 14.0314 28.5469C14.6095 23.151 14.8022 18.526 14.6095 14.6719C15.3803 15.8281 16.2475 17.1771 17.2111 18.7188C18.3673 20.0677 19.1382 20.9349 19.5236 21.3203C24.1486 27.2943 27.81 32.2083 30.5079 36.0625C33.3986 39.724 35.0366 41.7474 35.422 42.1328C36.0001 42.9036 36.9637 43.0964 38.3126 42.7109C39.2762 42.3255 40.4324 41.7474 41.7814 40.9766C43.3231 40.013 44.3829 39.2422 44.9611 38.6641C45.7319 37.8932 45.7319 36.8333 44.9611 35.4844C44.1902 33.75 43.7085 32.2083 43.5158 30.8594C42.7449 24.1146 42.7449 17.9479 43.5158 12.3594C43.5158 11.5885 43.7085 10.5286 44.0939 9.17969C44.672 7.83073 45.1538 6.77083 45.5392 6C45.7319 5.03646 45.3465 4.36198 44.3829 3.97656C41.685 3.39844 39.5652 3.10938 38.0236 3.10938C37.06 3.10938 36.6746 3.49479 36.8673 4.26562C37.06 6.77083 37.3491 9.17969 37.7345 11.4922Z" fill="url(#paint0_linear_439_4729)"/>
</g>
<defs>
<filter id="filter0_d_439_4729" x="0.230957" y="0.820312" width="48.3564" height="46.0833" filterUnits="userSpaceOnUse" color-interpolation-filters="sRGB">
<feFlood flood-opacity="0" result="BackgroundImageFix"/>
<feColorMatrix in="SourceAlpha" type="matrix" values="0 0 0 0 0 0 0 0 0 0 0 0 0 0 0 0 0 0 127 0" result="hardAlpha"/>
<feOffset dy="1"/>
<feGaussianBlur stdDeviation="1.5"/>
<feComposite in2="hardAlpha" operator="out"/>
<feColorMatrix type="matrix" values="0 0 0 0 0.968627 0 0 0 0 0.619608 0 0 0 0 0.733333 0 0 0 0.67 0"/>
<feBlend mode="normal" in2="BackgroundImageFix" result="effect1_dropShadow_439_4729"/>
<feBlend mode="normal" in="SourceGraphic" in2="effect1_dropShadow_439_4729" result="shape"/>
</filter>
<linearGradient id="paint0_linear_439_4729" x1="27" y1="-23" x2="27" y2="64" gradientUnits="userSpaceOnUse">
<stop stop-color="#FF8FB4"/>
<stop offset="0.708333" stop-color="#F25D8E"/>
</linearGradient>
</defs>
</svg>
