<?xml version="1.0" standalone="no"?><!DOCTYPE svg PUBLIC "-//W3C//DTD SVG 1.1//EN" "http://www.w3.org/Graphics/SVG/1.1/DTD/svg11.dtd"><svg t="1641309138283" class="icon" viewBox="0 0 1024 1024" version="1.1" xmlns="http://www.w3.org/2000/svg" p-id="3511" data-darkreader-inline-fill="" xmlns:xlink="http://www.w3.org/1999/xlink" width="200" height="200"><defs><style type="text/css"></style></defs><path d="M512 928c229.44 0 416-186.56 416-416S741.44 96 512 96 96 282.56 96 512s186.56 416 416 416z m0-896c264.672 0 480 215.36 480 480s-215.328 480-480 480C247.36 992 32 776.64 32 512S247.36 32 512 32z m214.72 265.28c12.512 12.48 12.512 32.96 0 45.44L557.44 512l169.28 169.28c6.08 6.4 9.28 14.4 9.28 22.72 0 8.32-3.2 16.32-9.28 22.72A32.64 32.64 0 0 1 704 736c-8.32 0-16.32-3.2-22.72-9.28L512 557.44l-169.28 169.28A32.64 32.64 0 0 1 320 736c-8.32 0-16.32-3.2-22.72-9.28-12.48-12.48-12.48-32.96 0-45.44L466.56 512l-169.28-169.28c-6.048-6.4-9.28-14.4-9.28-22.72 0-8.32 3.232-16.32 9.28-22.72 12.512-12.48 32.96-12.48 45.44 0L512 466.56l169.28-169.28c12.512-12.48 32.96-12.48 45.44 0z" p-id="3512"></path></svg>