<?xml version="1.0" standalone="no"?><!DOCTYPE svg PUBLIC "-//W3C//DTD SVG 1.1//EN" "http://www.w3.org/Graphics/SVG/1.1/DTD/svg11.dtd"><svg t="1641308848018" class="icon" viewBox="0 0 1024 1024" version="1.1" xmlns="http://www.w3.org/2000/svg" p-id="630" data-darkreader-inline-fill="" xmlns:xlink="http://www.w3.org/1999/xlink" width="200" height="200"><defs><style type="text/css"></style></defs><path d="M511.949885 191.974901c-89.175725 0-161.745087 72.168672-161.745087 160.899187 0 88.685993 72.569362 160.765623 161.745087 160.765623s161.656045-72.07963 161.656045-160.765623c0-88.730514-72.48032-160.899187-161.656045-160.899187z m0 250.431081A89.79902 89.79902 0 0 1 422.061822 352.829567a89.843541 89.843541 0 0 1 179.731604 0c0 49.4184-40.336099 89.576415-89.843541 89.576415zM890.423594 376.737387C890.423594 169.002023 720.620191 0 511.949885 0 303.279578 0 133.565217 169.002023 133.565217 376.737387c0 162.902635 233.023338 491.201087 333.240292 624.76433a56.541773 56.541773 0 0 0 90.288752 0C657.311214 867.938474 890.423594 539.684544 890.423594 376.737387zM517.91571 944.470212l-5.965825 8.058316-5.965825-8.058316c-189.214594-254.794147-306.883811-472.368669-306.883811-567.732825 0-171.717809 140.330447-311.424962 312.849636-311.424961 172.474668 0 312.760594 139.707152 312.760594 311.424961 0.044521 95.408677-117.491133 312.938678-306.794769 567.732825z" fill="#8b8b8b" p-id="631" data-darkreader-inline-fill="" style="--darkreader-inline-fill:#5a6165;"></path></svg>