<svg width="40" height="44" viewBox="0 0 40 44" fill="none" xmlns="http://www.w3.org/2000/svg">
<g filter="url(#filter0_d_449_4740)">
<path d="M19.8383 11.8406C16.8514 11.8406 14.4277 14.2937 14.4277 17.3167C14.4277 20.3398 16.8514 22.7929 19.8383 22.7929C22.8251 22.7929 25.2488 20.3398 25.2488 17.3167C25.2488 14.2937 22.8251 11.8406 19.8383 11.8406ZM19.8383 20.6016C18.0487 20.6016 16.5928 19.128 16.5928 17.3167C16.5928 15.5054 18.0487 14.0319 19.8383 14.0319C21.6279 14.0319 23.0837 15.5054 23.0837 17.3167C23.0837 19.128 21.6279 20.6016 19.8383 20.6016Z" fill="white"/>
<path fill-rule="evenodd" clip-rule="evenodd" d="M19.8091 6.36441C12.9191 6.36441 7.33608 12.0104 7.33608 18.9722C7.33608 22.7952 9.42354 26.7387 12.166 29.7793C13.5249 31.286 15.0058 32.5259 16.3902 33.3809C17.8044 34.2543 18.9988 34.6529 19.8091 34.6529C20.6193 34.6529 21.8138 34.2543 23.2279 33.3809C24.6123 32.5259 26.0932 31.286 27.4522 29.7793C30.1946 26.7387 32.2821 22.7952 32.2821 18.9722C32.2821 12.0104 26.699 6.36441 19.8091 6.36441ZM5 18.9722C5 10.7019 11.6316 4 19.8091 4C27.9866 4 34.6181 10.7019 34.6181 18.9722C34.6181 23.6095 32.1321 28.0976 29.1775 31.3734C27.6879 33.0248 26.0394 34.4143 24.4448 35.3992C22.88 36.3656 21.2458 37.0173 19.8091 37.0173C18.3724 37.0173 16.7382 36.3656 15.1734 35.3992C13.5787 34.4143 11.9302 33.0248 10.4407 31.3734C7.48608 28.0976 5 23.6095 5 18.9722Z" fill="white" stroke="white" stroke-width="0.5" stroke-linejoin="round"/>
</g>
<defs>
<filter id="filter0_d_449_4740" x="0.75" y="1.75" width="38.1182" height="41.5173" filterUnits="userSpaceOnUse" color-interpolation-filters="sRGB">
<feFlood flood-opacity="0" result="BackgroundImageFix"/>
<feColorMatrix in="SourceAlpha" type="matrix" values="0 0 0 0 0 0 0 0 0 0 0 0 0 0 0 0 0 0 127 0" result="hardAlpha"/>
<feOffset dy="2"/>
<feGaussianBlur stdDeviation="2"/>
<feComposite in2="hardAlpha" operator="out"/>
<feColorMatrix type="matrix" values="0 0 0 0 0.94902 0 0 0 0 0.364706 0 0 0 0 0.556863 0 0 0 0.4 0"/>
<feBlend mode="normal" in2="BackgroundImageFix" result="effect1_dropShadow_449_4740"/>
<feBlend mode="normal" in="SourceGraphic" in2="effect1_dropShadow_449_4740" result="shape"/>
</filter>
</defs>
</svg>
