<svg width="40" height="43" viewBox="0 0 40 43" fill="none" xmlns="http://www.w3.org/2000/svg">
<g filter="url(#filter0_d_449_4766)">
<path d="M19.8383 10.8406C16.8514 10.8406 14.4277 13.2937 14.4277 16.3167C14.4277 19.3398 16.8514 21.7929 19.8383 21.7929C22.8251 21.7929 25.2488 19.3398 25.2488 16.3167C25.2488 13.2937 22.8251 10.8406 19.8383 10.8406ZM19.8383 19.6016C18.0487 19.6016 16.5928 18.128 16.5928 16.3167C16.5928 14.5054 18.0487 13.0319 19.8383 13.0319C21.6279 13.0319 23.0837 14.5054 23.0837 16.3167C23.0837 18.128 21.6279 19.6016 19.8383 19.6016Z" fill="#F25D8E"/>
<path fill-rule="evenodd" clip-rule="evenodd" d="M19.8091 5.36441C12.9191 5.36441 7.33608 11.0104 7.33608 17.9722C7.33608 21.7952 9.42354 25.7387 12.166 28.7793C13.5249 30.286 15.0058 31.5259 16.3902 32.3809C17.8044 33.2543 18.9988 33.6529 19.8091 33.6529C20.6193 33.6529 21.8138 33.2543 23.2279 32.3809C24.6123 31.5259 26.0932 30.286 27.4522 28.7793C30.1946 25.7387 32.2821 21.7952 32.2821 17.9722C32.2821 11.0104 26.699 5.36441 19.8091 5.36441ZM5 17.9722C5 9.70194 11.6316 3 19.8091 3C27.9866 3 34.6181 9.70194 34.6181 17.9722C34.6181 22.6095 32.1321 27.0976 29.1775 30.3734C27.6879 32.0248 26.0394 33.4143 24.4448 34.3992C22.88 35.3656 21.2458 36.0173 19.8091 36.0173C18.3724 36.0173 16.7382 35.3656 15.1734 34.3992C13.5787 33.4143 11.9302 32.0248 10.4407 30.3734C7.48608 27.0976 5 22.6095 5 17.9722Z" fill="#F25D8E" stroke="#F25D8E" stroke-width="0.5" stroke-linejoin="round"/>
</g>
<defs>
<filter id="filter0_d_449_4766" x="0.75" y="0.75" width="38.1182" height="41.5173" filterUnits="userSpaceOnUse" color-interpolation-filters="sRGB">
<feFlood flood-opacity="0" result="BackgroundImageFix"/>
<feColorMatrix in="SourceAlpha" type="matrix" values="0 0 0 0 0 0 0 0 0 0 0 0 0 0 0 0 0 0 127 0" result="hardAlpha"/>
<feOffset dy="2"/>
<feGaussianBlur stdDeviation="2"/>
<feComposite in2="hardAlpha" operator="out"/>
<feColorMatrix type="matrix" values="0 0 0 0 0.94902 0 0 0 0 0.364706 0 0 0 0 0.556863 0 0 0 0.4 0"/>
<feBlend mode="normal" in2="BackgroundImageFix" result="effect1_dropShadow_449_4766"/>
<feBlend mode="normal" in="SourceGraphic" in2="effect1_dropShadow_449_4766" result="shape"/>
</filter>
</defs>
</svg>
